<svg width="1308px" height="178px" x="0px" y="0px" viewBox="0 0 1308 178" xmlns="http://www.w3.org/2000/svg" version="1.1" style="transform: translate(0,0)" preserveAspectRatio="none meet" shape-rendering="geometricPrecision" text-rendering="geometricPrecision" image-rendering="optimizeQuality"><title>多零条形码™</title><!--<description>本源文件基于多零™(y56y.com)制作。</description>--><rect x="0" y="0" width="1308" height="178" name="_barcode_background" fill-opacity="0"></rect><g name="_barcode_group" transform="translate(30, 30)" style="fill:#000000;"><rect x="0" y="0" width="16" height="118"></rect><rect x="24" y="0" width="8" height="118"></rect><rect x="48" y="0" width="8" height="118"></rect><rect x="88" y="0" width="8" height="118"></rect><rect x="112" y="0" width="8" height="118"></rect><rect x="128" y="0" width="16" height="118"></rect><rect x="176" y="0" width="8" height="118"></rect><rect x="200" y="0" width="8" height="118"></rect><rect x="224" y="0" width="32" height="118"></rect><rect x="264" y="0" width="8" height="118"></rect><rect x="280" y="0" width="32" height="118"></rect><rect x="328" y="0" width="8" height="118"></rect><rect x="352" y="0" width="32" height="118"></rect><rect x="392" y="0" width="8" height="118"></rect><rect x="416" y="0" width="8" height="118"></rect><rect x="440" y="0" width="8" height="118"></rect><rect x="480" y="0" width="16" height="118"></rect><rect x="504" y="0" width="8" height="118"></rect><rect x="528" y="0" width="16" height="118"></rect><rect x="576" y="0" width="8" height="118"></rect><rect x="592" y="0" width="8" height="118"></rect><rect x="616" y="0" width="8" height="118"></rect><rect x="632" y="0" width="16" height="118"></rect><rect x="664" y="0" width="8" height="118"></rect><rect x="704" y="0" width="8" height="118"></rect><rect x="728" y="0" width="16" height="118"></rect><rect x="760" y="0" width="24" height="118"></rect><rect x="792" y="0" width="8" height="118"></rect><rect x="832" y="0" width="8" height="118"></rect><rect x="848" y="0" width="16" height="118"></rect><rect x="880" y="0" width="8" height="118"></rect><rect x="912" y="0" width="32" height="118"></rect><rect x="952" y="0" width="8" height="118"></rect><rect x="968" y="0" width="32" height="118"></rect><rect x="1008" y="0" width="24" height="118"></rect><rect x="1040" y="0" width="8" height="118"></rect><rect x="1056" y="0" width="32" height="118"></rect><rect x="1112" y="0" width="8" height="118"></rect><rect x="1128" y="0" width="8" height="118"></rect><rect x="1144" y="0" width="16" height="118"></rect><rect x="1184" y="0" width="24" height="118"></rect><rect x="1216" y="0" width="8" height="118"></rect><rect x="1232" y="0" width="16" height="118"></rect></g></svg>